:SAMPLES-PER-SECOND 30
:FULLY-SPECIFIED
:DEGREES
69
root  65.3654 38.0736 0.444384 -51.1231 -82.1815 45.3532
RightUpLeg  -15.6909 -7.16805 -4.71235
RightLeg  -1.82608 1.95289 0.839984
RightFoot  -3.05602 -0.746009 9.95923
RightToes  -3.31784e-009 0 -3.6325e-017
Spine  6.33814 -0.222629 -5.19193
Spine1  7.51815 -0.620701 0.334915
HEad  0.687586 -0.583479 -3.8034
LeftShoulder1  -0.744504 5.46185 -31.8458
LeftArm  18.3351 -12.1648 -48.7773
LeftForeArm  20.8812 -28.145 -4.94379
LeftHand  -0.0666515 7.46499 -1.28984
RightShoulder  -1.07236 -6.3364 31.3039
RightArm  18.2781 -5.40952 45.5575
RightForeArm  22.2781 8.84021 8.15391
RightHand  0.0377199 0.188172 0.81735
LeftUpLeg  11.0625 5.93203 -8.39642
LeftLeg  11.8949 6.51301 0.0494337
LeftFoot  -17.6424 0.347693 4.40252
LeftToes  1.28511e-009 -3.60458e-011 6.16399e-011
70
root  64.2459 37.8951 0.551015 -45.5719 -81.8697 39.7578
RightUpLeg  -16.2802 -7.29632 -4.18309
RightLeg  2.60164 -2.71952 1.15079
RightFoot  -1.47111 -0.725501 8.27645
RightToes  -3.31784e-009 0 -3.6325e-017
Spine  6.43125 -0.206906 -3.86981
Spine1  7.41364 -0.517384 0.0154842
HEad  0.179734 -1.53204 -3.58198
LeftShoulder1  -0.843721 5.69384 -32.3635
LeftArm  19.186 -9.93599 -48.591
LeftForeArm  19.9962 -28.4351 -5.05849
LeftHand  -0.0448298 7.5724 -0.181626
RightShoulder  -1.07689 -6.34044 31.409
RightArm  17.8153 -4.94988 45.2271
RightForeArm  24.5446 7.99182 8.20431
RightHand  0.115109 -0.377331 2.7089
LeftUpLeg  12.7644 6.34087 -7.69616
LeftLeg  12.5527 5.1923 0.23338
LeftFoot  -19.2523 0.385071 3.89042
LeftToes  1.28511e-009 -3.60458e-011 6.16399e-011
71
root  63.1229 37.8421 0.661309 -35.1202 -81.2727 29.4774
RightUpLeg  -17.1073 -8.01048 -3.18425
RightLeg  6.9941 -4.16359 0.944461
RightFoot  1.30494 -0.284329 2.85379
RightToes  -3.31784e-009 0 -3.6325e-017
Spine  6.0314 -0.283381 -1.78578
Spine1  7.74025 -0.523457 0.114469
HEad  0.0897235 -2.35044 -3.49738
LeftShoulder1  -0.760536 5.48103 -32.3095
LeftArm  19.8718 -7.04238 -48.8654
LeftForeArm  19.6397 -27.7002 -4.91077
LeftHand  -0.0517095 8.26385 -0.243242
RightShoulder  -1.13654 -6.49018 31.5098
RightArm  17.178 -4.79995 44.7197
RightForeArm  24.2618 7.75463 8.04656
RightHand  0.111326 0.171093 2.28104
LeftUpLeg  14.7581 6.44905 -6.32895
LeftLeg  11.9088 3.4486 0.333427
LeftFoot  -19.9656 0.374209 3.36545
LeftToes  1.28511e-009 -3.60458e-011 6.16399e-011
72
root  61.9152 37.8561 0.742362 -22.084 -80.6305 16.1945
RightUpLeg  -16.7886 -8.48475 -1.75077
RightLeg  9.50225 -4.62855 0.791811
RightFoot  5.9662 0.173656 -0.987901
RightToes  -3.31784e-009 0 -3.6325e-017
Spine  5.93267 -0.36252 0.880278
Spine1  7.90429 -0.636621 0.662347
HEad  0.228559 -3.50561 -3.218
LeftShoulder1  -0.75598 5.44424 -32.7972
LeftArm  21.5903 -4.03331 -48.5416
LeftForeArm  18.2802 -25.9743 -4.54016
LeftHand  -0.0452729 8.8584 0.0674792
RightShoulder  -1.24709 -6.74779 31.922
RightArm  16.6851 -4.4537 43.7829
RightForeArm  24.6923 7.42839 7.88325
RightHand  0.189316 0.494734 3.69121
LeftUpLeg  16.8556 6.39625 -3.9958
LeftLeg  11.9764 1.54321 0.571264
LeftFoot  -20.1938 0.292117 2.22557
LeftToes  1.28511e-009 -3.60458e-011 6.16399e-011
73
root  60.657 37.808 0.809037 -13.1664 -80.9128 7.23953
RightUpLeg  -17.5088 -9.41726 0.367283
RightLeg  14.3116 -2.92583 -0.0653772
RightFoot  5.00615 0.408693 -2.61181
RightToes  -3.31784e-009 0 -3.6325e-017
Spine  5.8199 -0.163279 4.11286
Spine1  7.57444 -0.0455323 -0.346088
HEad  0.203093 -4.28741 -2.79509
LeftShoulder1  -0.807204 5.5588 -33.1076
LeftArm  22.1933 -0.993626 -48.1093
LeftForeArm  17.5245 -22.9027 -4.39939
LeftHand  -0.0481525 9.60369 0.0580996
RightShoulder  -1.29162 -6.84049 32.1879
RightArm  16.4802 -3.71773 43.3245
RightForeArm  25.2686 6.77963 7.90414
RightHand  0.106301 -1.31382 3.23826
LeftUpLeg  17.5439 6.15066 -1.93811
LeftLeg  14.6983 0.607281 0.677294
LeftFoot  -20.4595 0.102114 -0.263107
LeftToes  1.28511e-009 -3.60458e-011 6.16399e-011
74
root  59.4786 37.7787 0.859451 -8.10307 -82.0786 2.43907
RightUpLeg  -18.0143 -9.30732 1.94636
RightLeg  17.9942 -1.71533 -0.577295
RightFoot  3.41061 0.541173 -3.99324
RightToes  -3.31784e-009 0 -3.6325e-017
Spine  5.81199 0.434906 6.88254
Spine1  7.25524 1.02869 -1.19334
HEad  0.322852 -4.74335 -3.02527
LeftShoulder1  -0.886247 5.72256 -33.7691
LeftArm  16.0124 1.93313 -46.869
LeftForeArm  23.5684 -18.2942 -6.26999
LeftHand  -0.0951363 9.10727 -1.36499
RightShoulder  -1.40045 -7.12994 32.1164
RightArm  16.5828 -1.78384 43.5038
RightForeArm  24.2783 5.99191 8.09835
RightHand  0.071464 -1.24303 2.27043
LeftUpLeg  17.0982 6.27421 -0.430731
LeftLeg  18.7149 -0.0645352 0.280921
LeftFoot  -19.6331 -0.182665 -4.14771
LeftToes  1.28511e-009 -3.60458e-011 6.16399e-011
75
root  58.3791 37.7819 0.825399 -2.90376 -81.2654 -2.70848
RightUpLeg  -17.5264 -9.5064 2.65707
RightLeg  20.5802 -2.37351 -0.977168
RightFoot  0.813187 0.484673 -4.49582
RightToes  -3.31784e-009 0 -3.6325e-017
Spine  5.91809 0.148528 8.221
Spine1  7.17276 0.986451 -0.688045
HEad  0.567399 -5.23962 -2.46302
LeftShoulder1  -0.925625 5.82385 -33.715
LeftArm  4.32908 4.77929 -45.4832
LeftForeArm  33.4178 -12.5144 -8.74513
LeftHand  -0.128237 10.9344 -1.36799
RightShoulder  -1.32926 -6.96234 31.9256
RightArm  15.9063 -0.428545 44.1441
RightForeArm  22.7531 5.53112 7.9698
RightHand  0.0904081 1.73339 1.30725
LeftUpLeg  14.7995 5.5434 1.45474
LeftLeg  25.9058 -2.50572 -1.01581
LeftFoot  -17.2426 -0.340466 -8.80927
LeftToes  1.28511e-009 -3.60458e-011 6.16399e-011
